# Blender 3.5.0
# www.blender.org
mtllib haka.mtl
o 立方体.001
v -0.347121 0.674690 0.602384
v -0.347121 2.674690 0.555920
v -0.347121 0.674690 -0.582067
v -0.347121 2.674690 -0.501106
v 0.347121 0.674690 0.602384
v 0.347121 2.674690 0.555920
v 0.347121 0.674690 -0.582067
v 0.347121 2.674690 -0.501106
v -0.347121 1.674690 0.803843
v -0.347121 1.674690 -0.795967
v 0.347121 1.674690 -0.795967
v 0.347121 1.674690 0.803843
v -0.347121 0.674690 -0.000116
v -0.347121 2.674690 -0.000116
v 0.347121 0.674690 -0.000116
v 0.347121 2.674690 -0.000116
v 0.347121 1.674690 -0.000116
v -0.347121 1.674690 -0.000116
v -0.347121 1.174690 -0.693585
v 0.347121 1.174690 -0.693585
v 0.347121 1.174690 0.709336
v -0.347121 1.174690 0.709336
v -0.347121 1.174690 -0.000116
v 0.347121 1.174690 -0.000116
v -0.347121 2.174690 0.890474
v -0.347121 2.174690 -0.890474
v 0.347121 2.174690 -0.890474
v 0.347121 2.174690 0.890474
v 0.347121 2.174690 -0.000116
v -0.347121 2.174690 -0.000116
v -0.347121 2.674690 -0.314887
v 0.347121 0.674690 -0.250622
v -0.347121 1.674690 -0.409394
v -0.347121 0.674690 -0.250622
v 0.347121 2.674690 -0.314887
v 0.347121 1.674690 -0.409394
v 0.347121 1.174690 -0.409394
v -0.347121 1.174690 -0.409394
v 0.347121 2.174690 -0.409394
v -0.347121 2.174690 -0.409394
v -0.347121 0.674690 0.259472
v 0.347121 2.674690 0.303419
v 0.347121 1.674690 0.445179
v -0.347121 2.674690 0.303419
v 0.347121 0.674690 0.259472
v -0.347121 1.674690 0.445179
v -0.347121 1.174690 0.445179
v 0.347121 1.174690 0.445179
v -0.347121 2.174690 0.445179
v 0.347121 2.174690 0.445179
v 1.253998 0.451745 -1.253998
v 1.253998 -0.078636 -1.253998
v 1.253998 0.451745 1.253998
v 1.253998 -0.078636 1.253998
v -1.253998 0.451745 -1.253998
v -1.253998 -0.078636 -1.253998
v -1.253998 0.451745 1.253998
v -1.253998 -0.078636 1.253998
v -1.000000 -0.068994 1.000000
v -1.000000 0.740593 1.000000
v -1.000000 -0.068994 -1.000000
v -1.000000 0.740593 -1.000000
v 1.000000 -0.068994 1.000000
v 1.000000 0.740593 1.000000
v 1.000000 -0.068994 -1.000000
v 1.000000 0.740593 -1.000000
v -0.199330 2.634399 0.199330
v -0.199330 3.610206 0.199330
v -0.199330 2.634399 -0.199330
v -0.199330 3.610206 -0.199330
v 0.199330 2.634399 0.199330
v 0.199330 3.610206 0.199330
v 0.199330 2.634399 -0.199330
v 0.199330 3.610206 -0.199330
v -0.199330 2.944524 -0.484953
v -0.199330 2.958717 0.490751
v -0.199330 3.343142 -0.490751
v -0.199330 3.357335 0.484953
v 0.199330 2.944524 -0.484953
v 0.199330 2.958717 0.490751
v 0.199330 3.343142 -0.490751
v 0.199330 3.357335 0.484953
vn -1.0000 -0.0000 -0.0000
vn -0.0000 0.6144 -0.7890
vn 1.0000 -0.0000 -0.0000
vn -0.0000 0.5561 0.8311
vn -0.0000 -1.0000 -0.0000
vn -0.0000 1.0000 -0.0000
vn -0.0000 -0.1857 0.9826
vn -0.0000 -0.2006 -0.9797
vn -0.0000 -0.2177 -0.9760
vn -0.0000 -0.2092 0.9779
vn -0.0000 -0.1707 0.9853
vn -0.0000 -0.1857 -0.9826
vn -0.0000 -0.0000 1.0000
vn -0.0000 -0.0000 -1.0000
vn -0.0000 0.9999 -0.0145
vn -0.0000 -0.9999 0.0145
vn -0.0000 -0.0145 -0.9999
vn -0.0000 0.0145 0.9999
vt 0.125000 0.750000
vt 0.375000 1.000000
vt 0.375000 0.000000
vt 0.625000 1.000000
vt 0.875000 0.750000
vt 0.625000 0.000000
vt 0.125000 0.500000
vt 0.375000 0.250000
vt 0.625000 0.250000
vt 0.875000 0.500000
vt 0.375000 0.750000
vt 0.625000 0.750000
vt 0.375000 0.500000
vt 0.625000 0.500000
vt 0.500000 1.000000
vt 0.500000 0.000000
vt 0.500000 0.250000
vt 0.500000 0.500000
vt 0.500000 0.750000
vt 0.375000 0.125016
vt 0.125000 0.624984
vt 0.625000 0.125016
vt 0.875000 0.624984
vt 0.375000 0.624984
vt 0.625000 0.624984
vt 0.500000 0.624984
vt 0.500000 0.125016
vt 0.437500 0.250000
vt 0.437500 0.500000
vt 0.437500 0.750000
vt 0.437500 1.000000
vt 0.437500 0.000000
vt 0.437500 0.125016
vt 0.437500 0.624984
vt 0.562500 1.000000
vt 0.562500 0.000000
vt 0.562500 0.250000
vt 0.562500 0.500000
vt 0.562500 0.750000
vt 0.562500 0.624984
vt 0.562500 0.125016
vt 0.875000 0.567532
vt 0.625000 0.182468
vt 0.375000 0.567532
vt 0.500000 0.182468
vt 0.375000 0.182468
vt 0.125000 0.567532
vt 0.625000 0.567532
vt 0.500000 0.567532
vt 0.437500 0.567532
vt 0.437500 0.182468
vt 0.562500 0.567532
vt 0.562500 0.182468
vt 0.375000 0.062508
vt 0.125000 0.687492
vt 0.625000 0.687492
vt 0.500000 0.687492
vt 0.625000 0.062508
vt 0.875000 0.687492
vt 0.375000 0.687492
vt 0.500000 0.062508
vt 0.437500 0.062508
vt 0.437500 0.687492
vt 0.562500 0.062508
vt 0.562500 0.687492
vt 0.000000 0.000000
vt 0.000000 0.000000
vt 0.000000 0.000000
vt 0.000000 0.000000
vt 0.000000 0.000000
vt 0.000000 0.000000
vt 0.000000 0.000000
vt 0.000000 0.000000
vt 0.375000 0.000000
vt 0.375000 1.000000
vt 0.125000 0.750000
vt 0.625000 0.000000
vt 0.625000 1.000000
vt 0.875000 0.750000
vt 0.125000 0.500000
vt 0.375000 0.250000
vt 0.625000 0.250000
vt 0.875000 0.500000
vt 0.375000 0.750000
vt 0.625000 0.750000
vt 0.375000 0.500000
vt 0.625000 0.500000
vt 0.375000 0.000000
vt 0.375000 1.000000
vt 0.125000 0.750000
vt 0.625000 0.000000
vt 0.625000 1.000000
vt 0.875000 0.750000
vt 0.125000 0.500000
vt 0.375000 0.250000
vt 0.625000 0.250000
vt 0.875000 0.500000
vt 0.375000 0.750000
vt 0.625000 0.750000
vt 0.375000 0.500000
vt 0.625000 0.500000
vt 0.375000 0.000000
vt 0.375000 1.000000
vt 0.125000 0.750000
vt 0.625000 0.000000
vt 0.625000 1.000000
vt 0.875000 0.750000
vt 0.375000 0.250000
vt 0.125000 0.500000
vt 0.625000 0.250000
vt 0.875000 0.500000
vt 0.375000 0.750000
vt 0.625000 0.750000
vt 0.375000 0.500000
vt 0.625000 0.500000
s 0
usemtl Material
f 40/53/1 4/9/1 26/37/1
f 4/9/2 27/38/2 26/37/2
f 50/65/3 6/12/3 28/39/3
f 6/12/4 25/35/4 28/39/4
f 45/60/5 1/1/5 41/55/5
f 44/59/6 6/12/6 42/56/6
f 12/19/7 22/31/7 21/30/7
f 43/57/3 21/30/3 48/63/3
f 10/17/8 20/29/8 19/28/8
f 33/45/1 19/28/1 38/51/1
f 46/61/1 23/33/1 47/62/1
f 36/49/3 24/34/3 37/50/3
f 31/42/6 16/25/6 35/48/6
f 32/44/5 13/21/5 34/47/5
f 35/48/3 29/40/3 39/52/3
f 44/58/1 30/41/1 49/64/1
f 32/44/3 24/34/3 15/24/3
f 41/54/1 23/33/1 13/20/1
f 38/51/1 3/8/1 34/46/1
f 19/28/9 7/13/9 3/8/9
f 48/63/3 5/11/3 45/60/3
f 21/30/10 1/2/10 5/11/10
f 49/64/1 18/27/1 46/61/1
f 39/52/3 17/26/3 36/49/3
f 28/39/11 9/15/11 12/19/11
f 50/65/3 12/19/3 43/57/3
f 26/37/12 11/18/12 10/17/12
f 40/53/1 10/17/1 33/45/1
f 30/41/1 33/45/1 18/27/1
f 11/18/3 39/52/3 36/49/3
f 23/33/1 34/46/1 13/20/1
f 7/13/3 37/50/3 32/44/3
f 8/14/3 39/52/3 27/38/3
f 7/13/5 34/47/5 3/7/5
f 4/10/6 35/48/6 8/14/6
f 20/29/3 36/49/3 37/50/3
f 18/27/1 38/51/1 23/33/1
f 30/41/1 31/43/1 40/53/1
f 29/40/3 43/57/3 17/26/3
f 9/16/1 49/64/1 46/61/1
f 24/34/3 45/60/3 15/24/3
f 1/3/1 47/62/1 41/54/1
f 2/6/1 49/64/1 25/36/1
f 22/32/1 46/61/1 47/62/1
f 17/26/3 48/63/3 24/34/3
f 14/23/6 42/56/6 16/25/6
f 15/24/5 41/55/5 13/21/5
f 29/40/3 42/56/3 50/65/3
f 55/70/6 53/68/6 51/66/6
f 53/68/13 58/73/13 54/69/13
f 57/72/1 56/71/1 58/73/1
f 52/67/5 58/73/5 56/71/5
f 51/66/3 54/69/3 52/67/3
f 55/70/14 52/67/14 56/71/14
f 60/77/1 61/81/1 59/74/1
f 62/82/14 65/86/14 61/81/14
f 66/87/3 63/84/3 65/86/3
f 64/85/13 59/75/13 63/84/13
f 65/86/5 59/76/5 61/80/5
f 62/83/6 64/85/6 66/87/6
f 68/91/1 69/95/1 67/88/1
f 70/96/14 73/100/14 69/95/14
f 74/101/3 71/98/3 73/100/3
f 72/99/13 67/89/13 71/98/13
f 73/100/5 67/90/5 69/94/5
f 70/97/6 72/99/6 74/101/6
f 75/102/1 78/110/1 77/108/1
f 78/110/15 81/114/15 77/108/15
f 82/115/3 79/112/3 81/114/3
f 80/113/16 75/103/16 79/112/16
f 81/114/17 75/104/17 77/109/17
f 78/111/18 80/113/18 82/115/18
f 40/53/1 31/43/1 4/9/1
f 4/9/2 8/14/2 27/38/2
f 50/65/3 42/56/3 6/12/3
f 6/12/4 2/4/4 25/35/4
f 45/60/5 5/11/5 1/1/5
f 44/59/6 2/5/6 6/12/6
f 12/19/7 9/15/7 22/31/7
f 43/57/3 12/19/3 21/30/3
f 10/17/8 11/18/8 20/29/8
f 33/45/1 10/17/1 19/28/1
f 46/61/1 18/27/1 23/33/1
f 36/49/3 17/26/3 24/34/3
f 31/42/6 14/23/6 16/25/6
f 32/44/5 15/24/5 13/21/5
f 35/48/3 16/25/3 29/40/3
f 44/58/1 14/22/1 30/41/1
f 32/44/3 37/50/3 24/34/3
f 41/54/1 47/62/1 23/33/1
f 38/51/1 19/28/1 3/8/1
f 19/28/9 20/29/9 7/13/9
f 48/63/3 21/30/3 5/11/3
f 21/30/10 22/31/10 1/2/10
f 49/64/1 30/41/1 18/27/1
f 39/52/3 29/40/3 17/26/3
f 28/39/11 25/35/11 9/15/11
f 50/65/3 28/39/3 12/19/3
f 26/37/12 27/38/12 11/18/12
f 40/53/1 26/37/1 10/17/1
f 30/41/1 40/53/1 33/45/1
f 11/18/3 27/38/3 39/52/3
f 23/33/1 38/51/1 34/46/1
f 7/13/3 20/29/3 37/50/3
f 8/14/3 35/48/3 39/52/3
f 7/13/5 32/44/5 34/47/5
f 4/10/6 31/42/6 35/48/6
f 20/29/3 11/18/3 36/49/3
f 18/27/1 33/45/1 38/51/1
f 30/41/1 14/22/1 31/43/1
f 29/40/3 50/65/3 43/57/3
f 9/16/1 25/36/1 49/64/1
f 24/34/3 48/63/3 45/60/3
f 1/3/1 22/32/1 47/62/1
f 2/6/1 44/58/1 49/64/1
f 22/32/1 9/16/1 46/61/1
f 17/26/3 43/57/3 48/63/3
f 14/23/6 44/59/6 42/56/6
f 15/24/5 45/60/5 41/55/5
f 29/40/3 16/25/3 42/56/3
f 55/70/6 57/72/6 53/68/6
f 53/68/13 57/72/13 58/73/13
f 57/72/1 55/70/1 56/71/1
f 52/67/5 54/69/5 58/73/5
f 51/66/3 53/68/3 54/69/3
f 55/70/14 51/66/14 52/67/14
f 60/77/1 62/82/1 61/81/1
f 62/82/14 66/87/14 65/86/14
f 66/87/3 64/85/3 63/84/3
f 64/85/13 60/78/13 59/75/13
f 65/86/5 63/84/5 59/76/5
f 62/83/6 60/79/6 64/85/6
f 68/91/1 70/96/1 69/95/1
f 70/96/14 74/101/14 73/100/14
f 74/101/3 72/99/3 71/98/3
f 72/99/13 68/92/13 67/89/13
f 73/100/5 71/98/5 67/90/5
f 70/97/6 68/93/6 72/99/6
f 75/102/1 76/105/1 78/110/1
f 78/110/15 82/115/15 81/114/15
f 82/115/3 80/113/3 79/112/3
f 80/113/16 76/106/16 75/103/16
f 81/114/17 79/112/17 75/104/17
f 78/111/18 76/107/18 80/113/18
