# Blender 3.5.0
# www.blender.org
mtllib EnemyTest_F_Wepon.mtl
o 立方体.001
v 1.171005 -0.058113 -0.046166
v 1.354913 0.219517 -0.046166
v 1.164741 -0.066364 -0.971993
v 1.350571 0.214167 -0.971993
v 1.448635 -0.242022 -0.046166
v 1.632543 0.035608 -0.046166
v 1.445272 -0.252194 -0.971993
v 1.631102 0.028337 -0.971993
v 1.334455 -0.114823 -0.971993
v 1.533558 0.185744 -0.971993
v 1.338964 -0.106072 -0.046166
v 1.536007 0.191388 -0.046166
v 1.232203 -0.111053 -0.971993
v 1.421678 0.175290 -0.046166
v 1.418034 0.169479 -0.971993
v 1.237770 -0.102340 -0.046166
v 1.560969 0.074795 -0.971993
v 1.379227 -0.196045 -0.046166
v 1.375139 -0.205736 -0.971993
v 1.563136 0.081586 -0.046166
v 0.430821 -0.233028 -1.093320
v 1.195830 0.921837 -1.093320
v 1.585687 -0.998038 -1.093320
v 2.350696 0.156828 -1.093320
v 1.949133 0.804828 -1.093320
v 1.129485 -0.432522 -1.093320
v 0.708546 -0.417000 -1.093320
v 1.473554 0.737866 -1.093320
v 2.061979 0.348080 -1.093320
v 1.296970 -0.806785 -1.093320
v 1.080169 -0.081852 -0.331712
v 1.718902 0.047851 -0.331712
v 1.585304 0.263437 -0.331712
v 1.312611 -0.148223 -0.331712
v 1.172567 -0.143059 -0.331712
v 1.427081 0.241160 -0.331712
v 1.622847 0.111480 -0.331712
v 1.368333 -0.272738 -0.331712
v 1.334684 0.302366 -0.331712
v 1.464387 -0.336367 -0.331712
v 1.350571 0.214167 -0.887869
v 1.445272 -0.252194 -0.887869
v 1.164741 -0.066364 -0.887869
v 1.631102 0.028337 -0.887869
v 1.533558 0.185744 -0.887869
v 1.334455 -0.114823 -0.887869
v 1.232203 -0.111053 -0.887869
v 1.418034 0.169479 -0.887869
v 1.560969 0.074795 -0.887869
v 1.375139 -0.205736 -0.887869
v 1.229909 0.102595 -0.046166
v 1.224261 0.096023 -0.971993
v 1.555872 -0.123643 -0.971993
v 1.558091 -0.114800 -0.046166
v 1.419895 0.005397 8.740712
v 1.397664 -0.018842 -2.330639
v 1.345959 0.015408 -2.330639
v 1.302040 0.074835 0.171640
v 1.494925 -0.052936 0.171640
v 1.447472 -0.051837 -2.330639
v 2.040994 -0.468831 -1.093320
v 0.675849 0.435472 -1.093320
v 1.161688 0.140555 -0.331712
v 1.615866 -0.160303 -0.331712
v 1.555872 -0.123643 -0.887869
v 1.224261 0.096023 -0.887869
v 1.308936 0.150109 -0.046166
v 1.304113 0.144035 -0.971993
v 1.584645 -0.041795 -0.971993
v 1.586566 -0.033799 -0.046166
v 1.496278 0.138738 0.171640
v 1.430658 0.030966 -2.330639
v 1.378953 0.065216 -2.291422
v 1.381427 0.122567 0.171640
v 1.523530 0.028435 0.171640
v 1.480466 -0.002028 -2.291422
v 2.159443 -0.131888 -1.093320
v 1.004578 0.633121 -1.093320
v 1.271055 0.206311 -0.331712
v 1.655273 -0.048203 -0.331712
v 1.584645 -0.041795 -0.887869
v 1.304113 0.144035 -0.887869
v 1.211198 0.003769 -0.971993
v 1.491729 -0.182061 -0.971993
v 1.494612 -0.172614 -0.046166
v 1.390709 -0.020630 0.171640
v 1.364669 -0.068651 -2.330639
v 1.312965 -0.034401 -2.291422
v 1.289054 -0.016881 0.171640
v 1.431157 -0.111014 0.171640
v 1.414478 -0.101645 -2.291422
v 1.776939 -0.709321 -1.093320
v 0.622073 0.055688 -1.093320
v 1.143798 0.014202 -0.331712
v 1.528016 -0.240312 -0.331712
v 1.491729 -0.182061 -0.887869
v 1.211198 0.003769 -0.887869
v 1.216982 0.011294 -0.046166
v 1.449819 -0.046512 7.834706
v 1.390731 -0.028203 7.834706
v 1.450838 0.062585 7.834706
v 1.340397 0.026008 7.834476
v 1.311472 -0.009761 -1.010991
v 1.403148 0.073045 -1.010991
v 1.458111 0.073510 -1.010991
v 1.319435 -0.053329 -1.010991
v 1.359976 0.063410 -1.010991
v 1.322158 0.035811 -1.010991
v 1.486714 -0.020545 -1.010980
v 1.477738 0.023658 -1.010986
v 1.394030 -0.102709 -1.010959
v 1.469967 -0.062101 -1.010972
v 1.438236 -0.093732 -1.010964
v 1.368450 -0.061843 -1.010975
vn -0.8337 0.5522 -0.0000
vn 0.9800 0.1990 -0.0019
vn 0.8127 -0.5384 0.2227
vn -0.2139 0.9577 0.1923
vn -0.5364 -0.8097 0.2379
vn 0.5412 0.8171 0.1987
vn 0.9465 0.2338 0.2224
vn -0.0364 -0.9881 0.1492
vn 0.9451 0.2335 0.2288
vn 0.5315 0.8462 -0.0383
vn -0.0551 0.2468 -0.9675
vn -0.1360 0.9659 0.2202
vn -0.1363 0.9683 0.2092
vn 0.9557 0.1941 0.2211
vn -0.9034 -0.4043 0.1430
vn 0.5726 0.8189 -0.0383
vn 0.4966 0.2222 -0.8391
vn -0.2083 -0.3144 -0.9262
vn 0.0484 -0.3437 -0.9378
vn 0.1950 0.2944 -0.9356
vn 0.0197 0.5339 -0.8453
vn -0.3387 -0.0837 -0.9372
vn -0.3018 0.1999 -0.9322
vn -0.7145 0.4733 0.5152
vn -0.8143 0.5394 0.2142
vn -0.8555 -0.3828 0.3486
vn 0.4782 0.7220 0.5000
vn -0.1176 0.8351 0.5374
vn -0.4659 -0.7034 0.5369
vn -0.0344 -0.9336 0.3568
vn 0.8198 0.2025 0.5356
vn 0.7109 -0.4709 0.5224
vn 0.8337 -0.5522 -0.0000
vn -0.5522 -0.8337 -0.0000
vn 0.5522 0.8337 -0.0000
vn 0.9708 0.2399 -0.0000
vn -0.0369 -0.9993 -0.0000
vn -0.1394 0.9902 -0.0000
vn -0.9128 -0.4085 -0.0000
vn 0.3064 -0.2030 -0.9300
vn 0.3253 -0.0461 -0.9445
vn 0.6733 -0.7393 -0.0000
vn 0.5580 -0.6127 0.5597
vn -0.9594 0.1358 0.2473
vn -0.8165 0.1156 0.5656
vn -0.2242 0.2462 -0.9429
vn 0.1354 -0.6667 -0.7329
vn 0.6240 -0.6852 0.3756
vn -0.9900 0.1402 0.0133
vn -0.3516 0.0824 -0.9325
vn -0.6575 -0.1464 -0.7391
vn -0.2961 -0.9552 -0.0009
vn -0.9358 0.1325 0.3268
vn 0.6526 -0.7166 0.2462
vn 0.7060 -0.7082 -0.0087
vn -0.9901 0.1402 -0.0000
vn 0.1738 -0.2890 -0.9414
vn 0.9434 -0.3316 -0.0000
vn 0.7870 -0.2767 0.5514
vn -0.5014 0.8339 0.2306
vn -0.4299 0.7151 0.5512
vn -0.3188 0.1121 -0.9412
vn -0.0000 -0.0000 -1.0000
vn 0.8854 -0.3113 0.3452
vn -0.3141 0.9481 0.0491
vn -0.1839 0.3059 -0.9341
vn 0.9999 -0.0093 0.0095
vn -0.4962 0.8253 0.2695
vn 0.9166 -0.3222 0.2368
vn 0.8402 -0.5420 -0.0185
vn -0.5153 0.8570 -0.0000
vn 0.2476 -0.1640 -0.9549
vn -0.0000 -0.0000 1.0000
vn -0.8541 -0.3822 0.3528
vn -0.0199 -0.5389 -0.8421
vn -0.3696 -0.0676 -0.9267
vn -0.0342 -0.9276 0.3720
vn -0.5011 -0.2242 -0.8358
vn 0.7109 -0.4709 0.5223
vn 0.9994 -0.0093 0.0335
vn -0.2957 -0.9542 0.0449
vn -0.5152 0.8570 0.0114
vn -0.7321 -0.6795 0.0488
vn 0.0027 -0.0018 -1.0000
vn -0.0504 0.3579 -0.9324
vn -0.9736 0.2283 -0.0055
vn -0.2178 0.9760 -0.0019
vn -0.9837 -0.1798 0.0023
vn -0.8248 0.5649 -0.0236
vn 0.1990 -0.9800 0.0024
vn 0.3383 -0.1189 -0.9335
vn 0.3496 0.1376 -0.9267
vn 0.2417 -0.2654 -0.9333
vn 0.2478 -0.1641 -0.9548
vn -0.5491 -0.8357 0.0059
vn -0.8476 -0.5305 -0.0140
vn -0.0085 0.9999 -0.0060
vn -0.3281 0.2173 -0.9193
vn 0.2224 0.3358 -0.9153
vn 0.9305 0.3663 -0.0054
vn -0.0369 -0.9993 -0.0010
vn -0.7328 -0.6804 -0.0007
vn -0.3437 0.0487 -0.9378
vn -0.2960 -0.9552 -0.0009
vn 0.8268 -0.5622 -0.0185
vn 0.6667 0.1354 -0.7329
vn -0.2178 0.2985 -0.9292
vn -0.1217 0.6625 -0.7391
vn 0.9434 -0.3316 0.0058
vn 0.9708 0.2398 0.0081
vn 0.9275 -0.3738 -0.0099
vn -0.2071 -0.3126 -0.9270
vn 0.0739 -0.3647 -0.9282
vn -0.9416 -0.1723 0.2893
vn -0.0952 -0.5496 -0.8300
vn -0.3695 -0.0675 -0.9268
vn 0.1887 -0.9292 0.3178
vn -0.4787 -0.3000 -0.8252
vn -0.3144 0.9493 0.0076
vn -0.1394 0.9902 0.0090
vn -0.0032 0.3753 -0.9269
vn -0.8419 0.5392 -0.0235
vn -0.5895 0.8077 -0.0076
vn 0.3405 -0.1374 -0.9302
vn 0.3522 0.0870 -0.9319
vn 0.2472 -0.2482 -0.9366
vn 0.3833 0.0777 -0.9204
vn 0.2225 0.3358 -0.9153
vn -0.1711 -0.9852 -0.0137
vn -0.5555 -0.8315 0.0059
vt 0.630744 0.808433
vt 0.941082 0.402062
vt 0.808492 0.996812
vt 0.849559 0.988951
vt 0.060202 0.813795
vt 0.879071 0.183402
vt 0.252670 0.909667
vt 0.871151 0.354498
vt 0.870432 0.323313
vt 0.903628 0.144262
vt 0.539900 0.812234
vt 0.785782 0.878842
vt 0.302932 0.111846
vt 0.916304 0.177128
vt 0.902022 0.354498
vt 0.905613 0.673325
vt 0.912004 0.673017
vt 0.894594 0.369571
vt 0.901303 0.323313
vt 0.909920 0.167709
vt 0.879071 0.167709
vt 0.886472 0.349556
vt 0.904584 0.159342
vt 0.902212 0.178168
vt 0.885702 0.316144
vt 0.966064 0.629548
vt 0.927758 0.394083
vt 0.317911 0.112758
vt 0.075156 0.813879
vt 0.878660 0.177229
vt 0.878575 0.354498
vt 0.845146 0.990267
vt 0.064640 0.813354
vt 0.904382 0.148705
vt 0.877856 0.323313
vt 0.935632 0.399273
vt 0.625089 0.807152
vt 0.902212 0.167709
vt 0.916615 0.672187
vt 0.893585 0.323313
vt 0.974381 0.625794
vt 0.546227 0.811544
vt 0.909920 0.177913
vt 0.909920 0.176929
vt 0.894304 0.354498
vt 0.307565 0.113052
vt 0.943413 0.522850
vt 0.808492 0.876021
vt 0.754369 0.689297
vt 0.060949 0.919820
vt 0.849559 0.876021
vt 0.751411 0.560919
vt 0.785782 0.999267
vt 0.881454 0.689297
vt 0.528243 0.920598
vt 0.878496 0.560919
vt 0.302864 0.000000
vt 0.123155 0.920167
vt 0.814273 0.531405
vt 0.365174 0.003793
vt 0.817443 0.668953
vt 0.943413 0.528096
vt 0.887987 0.489658
vt 0.784931 0.689297
vt 0.920741 0.511246
vt 0.781972 0.560919
vt 0.079411 0.917983
vt 0.831203 0.881494
vt 0.846724 0.560919
vt 0.322135 0.005016
vt 0.849683 0.689297
vt 0.978009 0.512479
vt 0.554563 0.917727
vt 0.933251 0.428881
vt 0.800088 0.970157
vt 0.301545 0.084027
vt 0.079676 0.841367
vt 0.322275 0.085289
vt 0.957170 0.604041
vt 0.914811 0.417838
vt 0.925709 0.425020
vt 0.834903 0.965591
vt 0.065123 0.840641
vt 0.307957 0.085695
vt 0.547132 0.839049
vt 0.968680 0.598845
vt 0.058981 0.841252
vt 0.841010 0.963770
vt 0.538375 0.840004
vt 0.777538 0.905154
vt 0.911416 0.144339
vt 0.803728 0.605322
vt 0.905613 0.680933
vt 0.916304 0.184867
vt 0.835317 0.636506
vt 0.886798 0.183835
vt 0.252670 0.917456
vt 0.804447 0.636506
vt 0.834598 0.605322
vt 0.887053 0.368557
vt 0.912004 0.680805
vt 0.818998 0.598153
vt 0.894614 0.178565
vt 0.912372 0.159420
vt 0.819768 0.631565
vt 0.886798 0.168141
vt 0.902212 0.167907
vt 0.811870 0.636506
vt 0.886387 0.177662
vt 0.811152 0.605322
vt 0.912170 0.148782
vt 0.826881 0.605322
vt 0.894614 0.168106
vt 0.916615 0.679976
vt 0.827599 0.636506
vt 0.909920 0.185652
vt 0.902212 0.177128
vt 0.643671 0.807437
vt 0.045550 0.811836
vt 0.867117 0.338906
vt 0.902276 0.372634
vt 0.904584 0.129355
vt 0.894594 0.355512
vt 0.917201 0.355395
vt 0.903608 0.338906
vt 0.529273 0.810118
vt 0.289337 0.114804
vt 0.123155 0.000000
vt 0.365174 0.909066
vt 0.552877 0.000000
vt 0.681425 0.000000
vt 0.872654 0.360188
vt 0.881027 0.876021
vt 0.872654 0.354498
vt 0.909964 0.996708
vt 0.640628 0.786143
vt 0.052568 0.791536
vt 0.535241 0.789133
vt 0.296999 0.135369
vt 0.985794 0.373513
vt 0.872654 0.365669
vt 0.246310 0.012303
vt 0.484038 0.911792
vt 0.887987 0.625108
vt 0.000000 0.911669
vt 0.737762 0.625108
vt 0.681425 0.913832
vt 0.647134 0.834862
vt 0.038703 0.838540
vt 0.523668 0.837075
vt 0.282730 0.088120
vt 0.917201 0.363134
vt 0.887053 0.354498
vt 0.836904 0.620914
vt 0.912372 0.129432
vt 0.909958 0.373301
vt 0.800412 0.620914
vt 0.053974 0.812706
vt 0.870612 0.331110
vt 0.904293 0.137908
vt 0.894318 0.363086
vt 0.901483 0.331110
vt 0.296718 0.113477
vt 0.314808 0.133741
vt 0.071595 0.792937
vt 0.873109 0.876115
vt 0.993562 0.374090
vt 0.878191 0.360060
vt 0.878640 0.355049
vt 0.876474 0.879173
vt 0.061031 0.792410
vt 0.304414 0.134036
vt 0.878640 0.366219
vt 0.990241 0.376399
vt 0.277017 0.006784
vt 0.879235 0.593013
vt 0.752150 0.593013
vt 0.035044 0.915290
vt 0.050362 0.839745
vt 0.292946 0.086283
vt 0.886778 0.362072
vt 0.834778 0.613118
vt 0.803907 0.613118
vt 0.912081 0.137985
vt 0.902276 0.364686
vt 0.246310 0.909066
vt 0.870971 0.346702
vt 0.911013 0.354498
vt 0.901842 0.346702
vt 0.912004 0.672187
vt 0.780010 0.876021
vt 0.535384 0.811089
vt 0.629824 0.784418
vt 0.544861 0.788686
vt 0.969654 0.651444
vt 0.935503 0.373513
vt 0.995673 0.810959
vt 0.867117 0.360316
vt 0.914350 0.876021
vt 0.867566 0.355304
vt 0.906319 0.994001
vt 0.990954 0.815131
vt 0.632729 0.786324
vt 0.943413 0.378727
vt 0.978009 0.647673
vt 0.541380 0.790109
vt 0.867566 0.366475
vt 0.922791 0.876021
vt 0.981115 0.377717
vt 0.918637 0.880284
vt 0.509459 0.915833
vt 0.880715 0.657203
vt 0.761772 0.987535
vt 0.648716 0.914584
vt 0.785782 0.889282
vt 0.753630 0.657203
vt 0.636252 0.835112
vt 0.792532 0.974568
vt 0.532126 0.838419
vt 0.769550 0.901251
vt 0.911013 0.362237
vt 0.835137 0.628710
vt 0.912004 0.679796
vt 0.909958 0.365354
vt 0.246310 0.916855
vt 0.804267 0.628710
vt 0.635808 0.807618
vt 0.803033 1.000000
vt 0.549109 0.084154
vt 0.353600 0.827141
vt 0.904622 0.364686
vt 0.673861 0.083404
vt 0.554563 0.083901
vt 0.899227 0.363029
vt 0.363736 0.826209
vt 0.121073 0.084498
vt 0.904622 0.354498
vt 0.894594 0.358011
vt 0.679995 0.084404
vt 0.110245 0.083719
vt 0.906174 0.876511
vt 0.878558 0.343062
vt 0.872739 0.997697
vt 0.881118 0.331972
vt 0.867915 0.997871
vt 0.993562 0.492828
vt 0.885233 0.329123
vt 0.902064 0.876678
vt 0.881442 0.346021
vt 0.991128 0.932620
vt 0.878373 0.334926
vt 0.876830 0.997669
vt 0.876972 0.338994
vt 0.909964 0.876021
vt 0.881039 0.997871
vt 0.984714 0.491952
vt 0.892320 0.334926
vt 0.988861 0.492260
vt 0.889325 0.331971
vt 0.918638 0.993756
vt 0.918637 0.997304
vt 0.889650 0.346018
vt 0.980879 0.492251
vt 0.893238 0.338994
vt 0.978009 0.492922
vt 0.922791 0.993952
vt 0.892508 0.343062
vt 0.885580 0.344170
vt 0.995673 0.932470
vt 0.914301 0.997088
s 0
usemtl マテリアル.001
f 41/91/1 68/160/1 82/184/1
f 76/174/2 110/258/2 109/256/2
f 80/180/3 6/13/3 70/163/3
f 14/33/4 67/158/4 74/171/4
f 38/85/5 5/11/5 18/42/5
f 36/82/6 2/4/6 14/32/6
f 37/84/7 12/28/7 20/46/7
f 34/80/8 16/36/8 35/81/8
f 20/46/9 71/164/9 75/172/9
f 73/170/10 105/245/10 72/166/10
f 4/9/11 104/244/11 107/251/11
f 35/81/5 1/2/5 31/74/5
f 36/83/12 12/29/12 33/77/12
f 71/165/13 14/33/13 74/171/13
f 70/163/14 20/46/14 75/172/14
f 37/84/6 6/13/6 32/76/6
f 34/79/15 18/41/15 11/26/15
f 105/246/16 76/174/16 72/167/16
f 50/115/17 26/61/17 46/105/17
f 44/99/18 29/69/18 24/56/18
f 45/102/19 28/66/19 25/59/19
f 43/98/20 27/64/20 21/49/20
f 47/108/21 26/61/21 27/64/21
f 45/102/22 29/69/22 49/112/22
f 41/92/18 28/66/18 48/110/18
f 42/95/20 30/71/20 50/115/20
f 44/99/23 77/176/23 81/182/23
f 39/87/24 78/178/24 79/179/24
f 2/5/25 79/179/25 67/158/25
f 26/62/26 38/86/26 34/79/26
f 29/70/27 32/76/27 24/57/27
f 28/67/28 33/77/28 25/58/28
f 27/65/29 31/74/29 21/47/29
f 26/63/30 35/81/30 27/65/30
f 29/70/31 33/78/31 37/84/31
f 28/68/27 39/88/27 36/82/27
f 30/73/29 40/89/29 38/85/29
f 77/175/32 32/76/32 80/180/32
f 8/18/33 81/181/33 69/161/33
f 7/14/34 50/116/34 19/43/34
f 4/10/35 48/111/35 15/34/35
f 10/24/36 49/113/36 17/38/36
f 9/21/37 47/109/37 13/30/37
f 13/30/34 43/96/34 3/6/34
f 15/34/38 45/104/38 10/23/38
f 17/39/35 44/101/35 8/17/35
f 19/44/39 46/107/39 9/20/39
f 78/177/40 41/92/40 82/183/40
f 93/216/41 66/157/41 97/226/41
f 53/124/42 96/221/42 84/188/42
f 61/143/43 95/219/43 92/211/43
f 51/118/44 94/217/44 98/227/44
f 63/148/45 93/214/45 94/217/45
f 96/222/46 61/144/46 92/212/46
f 87/198/47 60/141/47 91/207/47
f 85/192/48 59/138/48 90/206/48
f 100/232/49 58/136/49 89/203/49
f 83/187/50 108/253/50 103/242/50
f 57/134/51 87/198/51 88/200/51
f 59/138/52 100/233/52 86/194/52
f 58/136/53 98/227/53 89/203/53
f 64/150/54 85/192/54 95/219/54
f 91/209/55 112/263/55 113/265/55
f 66/156/56 83/185/56 97/224/56
f 78/177/57 66/157/57 62/146/57
f 69/161/58 65/153/58 53/123/58
f 77/175/59 64/151/59 61/142/59
f 51/119/60 79/179/60 63/149/60
f 63/149/61 78/178/61 62/145/61
f 65/154/62 77/176/62 61/144/62
f 72/168/63 60/141/63 56/132/63
f 70/163/64 59/139/64 54/127/64
f 55/128/65 101/236/65 102/240/65
f 68/159/66 108/253/66 52/120/66
f 57/134/63 72/168/63 56/132/63
f 75/172/67 101/235/67 99/230/67
f 58/137/68 67/158/68 51/119/68
f 80/180/69 54/127/69 64/151/69
f 76/174/70 112/263/70 60/140/70
f 82/184/71 52/122/71 66/155/71
f 43/97/1 83/186/1 3/7/1
f 111/262/72 84/189/72 7/15/72
f 95/220/3 5/12/3 40/90/3
f 16/37/73 98/227/73 1/1/73
f 90/205/74 11/26/74 18/41/74
f 106/249/75 9/22/75 13/31/75
f 83/187/76 106/249/76 13/31/76
f 11/27/77 89/204/77 16/36/77
f 85/192/73 18/42/73 5/11/73
f 9/22/78 111/262/78 19/45/78
f 42/95/23 92/212/23 23/54/23
f 31/75/24 93/215/24 21/48/24
f 1/3/25 94/218/25 31/75/25
f 92/213/79 40/90/79 23/53/79
f 7/16/33 96/223/33 42/93/33
f 93/216/40 43/98/40 21/49/40
f 99/230/80 101/235/80 55/129/80
f 100/233/81 99/229/81 55/130/81
f 101/236/82 74/171/82 58/137/82
f 102/239/83 100/232/83 55/131/83
f 101/237/84 100/234/84 102/238/84
f 105/247/85 15/35/85 10/25/85
f 108/254/86 88/201/86 103/241/86
f 107/252/87 104/243/87 73/170/87
f 106/248/88 103/241/88 88/201/88
f 108/255/89 73/170/89 57/133/89
f 113/266/90 111/260/90 91/208/90
f 112/264/91 69/162/91 53/125/91
f 105/247/92 17/40/92 110/259/92
f 113/267/93 53/125/93 84/189/93
f 110/259/94 8/19/94 69/162/94
f 114/269/95 88/202/95 87/197/95
f 114/270/96 91/210/96 111/261/96
f 41/91/1 4/10/1 68/160/1
f 80/180/3 32/76/3 6/13/3
f 14/33/73 2/5/73 67/158/73
f 38/85/5 40/89/5 5/11/5
f 36/82/6 39/88/6 2/4/6
f 37/84/7 33/78/7 12/28/7
f 34/80/8 11/27/8 16/36/8
f 20/46/9 12/28/9 71/164/9
f 73/170/97 104/243/97 105/245/97
f 107/251/98 68/159/98 4/9/98
f 4/9/99 15/35/99 104/244/99
f 35/81/5 16/36/5 1/2/5
f 36/83/12 14/33/12 12/29/12
f 71/165/13 12/29/13 14/33/13
f 70/163/73 6/13/73 20/46/73
f 37/84/6 20/46/6 6/13/6
f 34/79/15 38/86/15 18/41/15
f 105/246/100 110/258/100 76/174/100
f 50/115/17 30/71/17 26/61/17
f 44/99/18 49/112/18 29/69/18
f 45/102/19 48/110/19 28/66/19
f 43/98/20 47/108/20 27/64/20
f 47/108/21 46/105/21 26/61/21
f 45/102/22 25/59/22 29/69/22
f 41/92/18 22/52/18 28/66/18
f 42/95/20 23/54/20 30/71/20
f 44/99/23 24/56/23 77/176/23
f 39/87/24 22/50/24 78/178/24
f 2/5/25 39/87/25 79/179/25
f 26/62/26 30/72/26 38/86/26
f 29/70/27 37/84/27 32/76/27
f 28/67/28 36/83/28 33/77/28
f 27/65/29 35/81/29 31/74/29
f 26/63/30 34/80/30 35/81/30
f 29/70/31 25/60/31 33/78/31
f 28/68/27 22/51/27 39/88/27
f 30/73/29 23/55/29 40/89/29
f 77/175/32 24/57/32 32/76/32
f 8/18/33 44/100/33 81/181/33
f 7/14/34 42/94/34 50/116/34
f 4/10/35 41/91/35 48/111/35
f 10/24/36 45/103/36 49/113/36
f 9/21/37 46/106/37 47/109/37
f 13/30/34 47/109/34 43/96/34
f 15/34/38 48/111/38 45/104/38
f 17/39/35 49/114/35 44/101/35
f 19/44/39 50/117/39 46/107/39
f 78/177/40 22/52/40 41/92/40
f 93/216/41 62/146/41 66/157/41
f 53/124/42 65/152/42 96/221/42
f 61/143/43 64/150/43 95/219/43
f 51/118/44 63/148/44 94/217/44
f 63/148/45 62/147/45 93/214/45
f 96/222/46 65/154/46 61/144/46
f 87/198/63 56/132/63 60/141/63
f 85/192/48 54/126/48 59/138/48
f 89/203/101 86/193/101 100/232/101
f 100/232/102 102/239/102 58/136/102
f 83/187/103 52/120/103 108/253/103
f 57/134/63 56/132/63 87/198/63
f 86/194/73 90/206/73 59/138/73
f 59/138/104 99/229/104 100/233/104
f 58/136/53 51/118/53 98/227/53
f 64/150/54 54/126/54 85/192/54
f 91/209/105 60/140/105 112/263/105
f 66/156/56 52/121/56 83/185/56
f 78/177/57 82/183/57 66/157/57
f 69/161/58 81/181/58 65/153/58
f 77/175/59 80/180/59 64/151/59
f 51/119/60 67/158/60 79/179/60
f 63/149/61 79/179/61 78/178/61
f 65/154/62 81/182/62 77/176/62
f 72/168/106 76/173/106 60/141/106
f 70/163/64 75/172/64 59/139/64
f 68/159/107 107/251/107 108/253/107
f 57/134/108 73/169/108 72/168/108
f 99/230/109 59/139/109 75/172/109
f 75/172/110 71/164/110 101/235/110
f 58/137/68 74/171/68 67/158/68
f 80/180/69 70/163/69 54/127/69
f 76/174/111 109/256/111 112/263/111
f 82/184/71 68/160/71 52/122/71
f 43/97/1 97/225/1 83/186/1
f 7/15/112 19/45/112 111/262/112
f 111/262/113 113/267/113 84/189/113
f 95/220/3 85/191/3 5/12/3
f 16/37/114 89/203/114 98/227/114
f 90/205/74 86/195/74 11/26/74
f 106/249/115 114/268/115 9/22/115
f 13/31/63 3/8/63 83/187/63
f 83/187/116 103/242/116 106/249/116
f 11/27/77 86/196/77 89/204/77
f 85/192/117 90/206/117 18/42/117
f 9/22/118 114/268/118 111/262/118
f 42/95/23 96/222/23 92/212/23
f 31/75/24 94/218/24 93/215/24
f 1/3/25 98/228/25 94/218/25
f 92/213/32 95/220/32 40/90/32
f 7/16/33 84/190/33 96/223/33
f 93/216/40 97/226/40 43/98/40
f 58/137/119 102/240/119 101/236/119
f 101/236/120 71/165/120 74/171/120
f 101/237/63 99/231/63 100/234/63
f 105/247/121 104/244/121 15/35/121
f 108/254/122 57/135/122 88/201/122
f 108/255/123 107/252/123 73/170/123
f 112/264/124 109/257/124 69/162/124
f 105/247/125 10/25/125 17/40/125
f 113/267/126 112/264/126 53/125/126
f 69/162/127 109/257/127 110/259/127
f 110/259/128 17/40/128 8/19/128
f 114/269/129 106/250/129 88/202/129
f 114/270/130 87/199/130 91/210/130
