# Blender 3.5.0
# www.blender.org
mtllib EnemyTest_I_Wepon.mtl
o 立方体
v -1.391492 -0.311757 -0.046166
v -1.600340 -0.052366 -0.046166
v -1.385528 -0.320227 -0.971993
v -1.596558 -0.058126 -0.971993
v -1.132101 -0.102910 -0.046166
v -1.340949 0.156481 -0.046166
v -1.123427 -0.109197 -0.971993
v -1.334456 0.152904 -0.971993
v -1.287919 -0.173177 -0.971993
v -1.514021 0.107645 -0.971993
v -1.294893 -0.166228 -0.046166
v -1.518657 0.111689 -0.046166
v -1.322497 -0.269478 -0.971993
v -1.537961 -0.002142 -0.046166
v -1.533527 -0.007377 -0.971993
v -1.329113 -0.261533 -0.046166
v -1.399982 0.100147 -0.971993
v -1.196949 -0.155122 -0.046166
v -1.188952 -0.161954 -0.971993
v -1.405797 0.104269 -0.046166
v -1.449096 -1.070143 -1.093319
v -2.317845 0.008851 -1.093319
v -0.370101 -0.201394 -1.093320
v -1.238851 0.877600 -1.093320
v -1.978067 0.691279 -1.093319
v -1.047269 -0.464780 -1.093320
v -1.189617 -0.861224 -1.093320
v -2.058366 0.217770 -1.093319
v -1.508599 0.660413 -1.093320
v -0.639850 -0.418581 -1.093320
v -1.396395 -0.405515 -0.331712
v -1.326447 0.242489 -0.331712
v -1.572381 0.180501 -0.331712
v -1.262709 -0.204114 -0.331712
v -1.310067 -0.336009 -0.331712
v -1.599096 0.022967 -0.331712
v -1.416191 0.170232 -0.331712
v -1.127163 -0.188744 -0.331712
v -1.685423 -0.046539 -0.331712
v -1.037419 -0.116487 -0.331712
v -1.596557 -0.058125 -0.887869
v -1.123426 -0.109197 -0.887869
v -1.385528 -0.320227 -0.887869
v -1.334456 0.152904 -0.887869
v -1.514021 0.107645 -0.887869
v -1.287919 -0.173177 -0.887869
v -1.322497 -0.269478 -0.887869
v -1.533527 -0.007377 -0.887869
v -1.399982 0.100147 -0.887869
v -1.188952 -0.161954 -0.887869
v -1.526794 -0.206923 -0.046166
v -1.522243 -0.214297 -0.971993
v -1.212419 0.035157 -0.971993
v -1.220173 0.039952 -0.046166
v -1.376596 -0.055324 8.740712
v -1.360233 -0.083855 -2.330639
v -1.408541 -0.122750 -2.330639
v -1.478482 -0.146596 0.171640
v -1.298270 -0.001498 0.171640
v -1.313697 -0.046387 -2.330639
v -0.736456 0.392870 -1.093320
v -2.011915 -0.634063 -1.093319
v -1.583642 -0.260434 -0.331712
v -1.159303 0.081222 -0.331712
v -1.212419 0.035157 -0.887869
v -1.522243 -0.214297 -0.887869
v -1.548128 -0.117214 -0.046166
v -1.543800 -0.123651 -0.971993
v -1.281699 0.087379 -0.971993
v -1.288737 0.091633 -0.046166
v -1.480521 0.057874 0.171640
v -1.397701 -0.037319 -2.330639
v -1.446009 -0.076214 -2.291422
v -1.499914 -0.056477 0.171640
v -1.367146 0.050420 0.171640
v -1.351165 0.000150 -2.291422
v -1.021663 0.607852 -1.093320
v -2.100657 -0.260897 -1.093319
v -1.613166 -0.136284 -0.331712
v -1.254190 0.152745 -0.331712
v -1.281699 0.087379 -0.887869
v -1.543800 -0.123651 -0.887869
v -1.438285 -0.254701 -0.971993
v -1.176184 -0.043671 -0.971993
v -1.184313 -0.038062 -0.046166
v -1.360637 -0.091024 0.171640
v -1.322764 -0.130391 -2.330639
v -1.371072 -0.169286 -2.291422
v -1.395013 -0.186764 0.171640
v -1.262246 -0.079867 0.171640
v -1.276228 -0.092923 -2.291422
v -0.587289 0.068355 -1.093320
v -1.666283 -0.800394 -1.093319
v -1.468652 -0.315772 -0.331712
v -1.109676 -0.026743 -0.331712
v -1.176184 -0.043671 -0.887869
v -1.438285 -0.254701 -0.887869
v -1.443704 -0.246910 -0.046166
v -1.318060 -0.042536 7.834707
v -1.353413 -0.093299 7.834707
v -1.421719 -0.008506 7.834707
v -1.420327 -0.124838 7.834477
v -1.395006 -0.163242 -1.010991
v -1.446138 -0.050785 -1.010991
v -1.429926 0.001735 -1.010991
v -1.351073 -0.168856 -1.010991
v -1.450038 -0.094846 -1.010991
v -1.435197 -0.139250 -1.010991
v -1.331626 0.000493 -1.010980
v -1.376471 0.005333 -1.010986
v -1.281411 -0.112732 -1.010958
v -1.297098 -0.028060 -1.010972
v -1.276570 -0.067884 -1.010964
v -1.328107 -0.124725 -1.010974
vn -0.7789 -0.6271 -0.0000
vn 0.1073 0.9942 -0.0019
vn 0.7593 0.6114 0.2227
vn -0.9775 0.0864 0.1923
vn 0.6091 -0.7565 0.2379
vn -0.6146 0.7634 0.1987
vn 0.0640 0.9729 0.2224
vn 0.9306 -0.3342 0.1492
vn 0.0639 0.9714 0.2288
vn -0.6454 0.7629 -0.0383
vn -0.2519 0.0223 -0.9675
vn -0.9617 0.1631 0.2202
vn -0.9641 0.1635 0.2092
vn 0.1047 0.9696 0.2211
vn 0.1115 -0.9834 0.1430
vn -0.6069 0.7939 -0.0383
vn -0.0613 0.5406 -0.8391
vn 0.2365 -0.2938 -0.9262
vn 0.3422 -0.0580 -0.9378
vn -0.2215 0.2751 -0.9356
vn -0.5029 0.1806 -0.8453
vn -0.0229 -0.3481 -0.9372
vn -0.2820 -0.2271 -0.9322
vn -0.6676 -0.5375 0.5152
vn -0.7608 -0.6126 0.2142
vn 0.1056 -0.9313 0.3486
vn -0.5431 0.6745 0.5000
vn -0.8314 0.1410 0.5374
vn 0.5291 -0.6571 0.5369
vn 0.8792 -0.3157 0.3568
vn 0.0554 0.8426 0.5356
vn 0.6642 0.5348 0.5224
vn 0.7789 0.6271 -0.0000
vn 0.6271 -0.7789 -0.0000
vn -0.6271 0.7789 -0.0000
vn 0.0656 0.9978 -0.0000
vn 0.9412 -0.3379 -0.0000
vn -0.9859 0.1672 -0.0000
vn 0.1127 -0.9936 -0.0000
vn 0.2863 0.2305 -0.9300
vn 0.1425 0.2961 -0.9445
vn 0.9086 0.4177 -0.0000
vn 0.7530 0.3461 0.5597
vn -0.4202 -0.8731 0.2473
vn -0.3576 -0.7431 0.5656
vn -0.3025 -0.1391 -0.9429
vn 0.6764 -0.0730 -0.7329
vn 0.8421 0.3871 0.3756
vn -0.4336 -0.9010 0.0133
vn -0.1851 -0.3100 -0.9325
vn -0.0598 -0.6710 -0.7391
vn 0.8205 -0.5716 -0.0009
vn -0.4098 -0.8516 0.3268
vn 0.8806 0.4048 0.2462
vn 0.8888 0.4582 -0.0087
vn -0.4336 -0.9011 -0.0000
vn 0.3281 0.0780 -0.9414
vn 0.6019 0.7986 -0.0000
vn 0.5022 0.6662 0.5514
vn -0.9466 -0.2251 0.2306
vn -0.8118 -0.1930 0.5512
vn -0.2034 -0.2699 -0.9412
vn -0.0000 -0.0000 -1.0000
vn 0.5649 0.7495 0.3452
vn -0.9987 -0.0120 0.0491
vn -0.3473 -0.0826 -0.9341
vn 0.3119 0.9501 0.0095
vn -0.9369 -0.2228 0.2695
vn 0.5848 0.7758 0.2368
vn 0.7711 0.6365 -0.0185
vn -0.9729 -0.2314 -0.0000
vn 0.2313 0.1863 -0.9549
vn -0.0000 -0.0000 1.0000
vn 0.1054 -0.9297 0.3528
vn 0.5075 -0.1822 -0.8421
vn -0.0476 -0.3727 -0.9267
vn 0.8736 -0.3137 0.3720
vn 0.0619 -0.5455 -0.8358
vn 0.3117 0.9496 0.0335
vn 0.8198 -0.5709 0.0449
vn -0.9728 -0.2313 0.0114
vn 0.4257 -0.9035 0.0488
vn 0.0025 0.0020 -1.0000
vn -0.3563 0.0604 -0.9324
vn -0.5126 -0.8586 -0.0055
vn -0.9961 0.0882 -0.0019
vn -0.1267 -0.9919 0.0023
vn -0.7883 -0.6148 -0.0236
vn 0.9942 -0.1073 0.0024
vn 0.2159 0.2864 -0.9335
vn -0.0251 0.3749 -0.9267
vn 0.3262 0.1499 -0.9333
vn 0.2315 0.1864 -0.9548
vn 0.6300 -0.7766 0.0059
vn 0.2487 -0.9685 -0.0140
vn -0.9555 0.2949 -0.0060
vn -0.3065 -0.2468 -0.9193
vn -0.2526 0.3137 -0.9153
vn -0.0672 0.9977 -0.0054
vn 0.9412 -0.3379 -0.0010
vn 0.4264 -0.9046 -0.0007
vn -0.1505 -0.3128 -0.9378
vn 0.8206 -0.5715 -0.0009
vn 0.7863 0.6175 -0.0185
vn 0.0730 0.6764 -0.7329
vn -0.3505 -0.1171 -0.9292
vn -0.6683 0.0848 -0.7391
vn 0.6019 0.7985 0.0058
vn 0.0656 0.9978 0.0081
vn 0.6372 0.7706 -0.0099
vn 0.2352 -0.2921 -0.9270
vn 0.3700 -0.0401 -0.9282
vn -0.1212 -0.9495 0.2893
vn 0.4949 -0.2573 -0.8300
vn -0.0476 -0.3726 -0.9268
vn 0.9427 -0.1018 0.3178
vn 0.1408 -0.5471 -0.8251
vn -0.9999 -0.0120 0.0076
vn -0.9859 0.1672 0.0090
vn -0.3586 0.1107 -0.9269
vn -0.7689 -0.6389 -0.0235
vn -0.9484 -0.3170 -0.0076
vn 0.2341 0.2828 -0.9302
vn 0.0238 0.3620 -0.9319
vn 0.3114 0.1603 -0.9366
vn 0.0421 0.3888 -0.9204
vn -0.2526 0.3138 -0.9153
vn 0.8870 -0.4616 -0.0137
vn 0.6241 -0.7813 0.0059
vt 0.687080 0.808433
vt 0.941082 0.551399
vt 0.831203 0.996812
vt 0.867915 0.988951
vt 0.183357 0.813795
vt 0.879051 0.370192
vt 0.259030 0.909667
vt 0.871171 0.167709
vt 0.870453 0.136524
vt 0.903608 0.331051
vt 0.610425 0.812234
vt 0.761772 0.878842
vt 0.421796 0.111846
vt 0.916304 0.167709
vt 0.902042 0.167709
vt 0.904622 0.355635
vt 0.912352 0.316974
vt 0.894614 0.182782
vt 0.901323 0.136524
vt 0.909920 0.177128
vt 0.879051 0.354498
vt 0.886493 0.162767
vt 0.904564 0.346131
vt 0.905613 0.682646
vt 0.885723 0.129355
vt 0.966064 0.490582
vt 0.927758 0.543420
vt 0.436775 0.112758
vt 0.198311 0.813879
vt 0.878640 0.364019
vt 0.878595 0.167709
vt 0.863502 0.990267
vt 0.187795 0.813354
vt 0.904362 0.335494
vt 0.877876 0.136524
vt 0.935632 0.548610
vt 0.681425 0.807152
vt 0.905613 0.672187
vt 0.916963 0.316144
vt 0.893605 0.136524
vt 0.974381 0.486828
vt 0.616753 0.811544
vt 0.909920 0.168494
vt 0.909920 0.186348
vt 0.894324 0.167709
vt 0.426429 0.113052
vt 0.943413 0.672187
vt 0.831203 0.876021
vt 0.754369 0.531405
vt 0.184104 0.919820
vt 0.867915 0.876021
vt 0.751411 0.403026
vt 0.761772 0.999267
vt 0.881454 0.531405
vt 0.598768 0.920598
vt 0.878496 0.403026
vt 0.421728 0.000000
vt 0.246310 0.920167
vt 0.814273 0.373513
vt 0.484038 0.003793
vt 0.817443 0.511061
vt 0.943413 0.389130
vt 0.887987 0.638995
vt 0.784931 0.531405
vt 0.920741 0.660583
vt 0.781972 0.403026
vt 0.202566 0.917983
vt 0.849559 0.881494
vt 0.846724 0.403026
vt 0.440999 0.005016
vt 0.849683 0.531405
vt 0.978009 0.373513
vt 0.625089 0.917727
vt 0.933251 0.578218
vt 0.822798 0.970157
vt 0.420409 0.084027
vt 0.202831 0.841367
vt 0.441139 0.085289
vt 0.957170 0.465075
vt 0.914811 0.567175
vt 0.925709 0.574357
vt 0.853259 0.965591
vt 0.188278 0.840641
vt 0.426820 0.085695
vt 0.617657 0.839049
vt 0.968680 0.459879
vt 0.182136 0.841252
vt 0.859366 0.963770
vt 0.608901 0.840004
vt 0.753528 0.905154
vt 0.911396 0.331128
vt 0.803728 0.447430
vt 0.904622 0.363244
vt 0.916304 0.175448
vt 0.835317 0.478614
vt 0.886778 0.370624
vt 0.259030 0.917456
vt 0.804447 0.478614
vt 0.834598 0.447430
vt 0.887074 0.181768
vt 0.912352 0.324762
vt 0.818998 0.440260
vt 0.898015 0.683043
vt 0.912352 0.346209
vt 0.819768 0.473673
vt 0.886778 0.354930
vt 0.902212 0.177326
vt 0.811870 0.478614
vt 0.886367 0.364451
vt 0.811152 0.447430
vt 0.912150 0.335571
vt 0.826881 0.447430
vt 0.898015 0.672584
vt 0.916963 0.323933
vt 0.827599 0.478614
vt 0.909920 0.176233
vt 0.902212 0.186546
vt 0.700007 0.807437
vt 0.168705 0.811836
vt 0.867137 0.152117
vt 0.894594 0.372634
vt 0.904564 0.316144
vt 0.894614 0.168723
vt 0.916146 0.365583
vt 0.903629 0.152117
vt 0.599798 0.810118
vt 0.408200 0.114804
vt 0.246310 0.000000
vt 0.484038 0.909066
vt 0.623402 0.000000
vt 0.737762 0.000000
vt 0.872674 0.173399
vt 0.894151 0.876021
vt 0.872674 0.167709
vt 0.902064 0.996708
vt 0.696965 0.786143
vt 0.175723 0.791536
vt 0.605767 0.789133
vt 0.415863 0.135369
vt 0.985794 0.492922
vt 0.872674 0.178880
vt 0.365174 0.012303
vt 0.554563 0.911792
vt 0.887987 0.467216
vt 0.123155 0.911669
vt 0.737762 0.467216
vt 0.737762 0.913832
vt 0.703471 0.834862
vt 0.161858 0.838540
vt 0.594194 0.837075
vt 0.401594 0.088120
vt 0.916146 0.373322
vt 0.887074 0.167709
vt 0.836904 0.463022
vt 0.912352 0.316222
vt 0.902276 0.373301
vt 0.800412 0.463022
vt 0.177129 0.812706
vt 0.870632 0.144320
vt 0.904273 0.324697
vt 0.894338 0.176296
vt 0.901503 0.144320
vt 0.415582 0.113477
vt 0.433672 0.133741
vt 0.194750 0.792937
vt 0.886234 0.876115
vt 0.993562 0.493498
vt 0.878211 0.173271
vt 0.878660 0.168259
vt 0.889598 0.879173
vt 0.184186 0.792410
vt 0.423278 0.134036
vt 0.878660 0.179430
vt 0.990241 0.495808
vt 0.395881 0.006784
vt 0.879235 0.435121
vt 0.752150 0.435121
vt 0.158199 0.915290
vt 0.173517 0.839745
vt 0.411810 0.086283
vt 0.886798 0.175283
vt 0.834778 0.455226
vt 0.803907 0.455226
vt 0.912061 0.324775
vt 0.894594 0.364686
vt 0.252670 0.909066
vt 0.870992 0.159913
vt 0.909958 0.364686
vt 0.901862 0.159913
vt 0.911013 0.354498
vt 0.756000 0.876021
vt 0.605909 0.811089
vt 0.686160 0.784418
vt 0.615387 0.788686
vt 0.969654 0.512479
vt 0.935503 0.522850
vt 0.995673 0.689297
vt 0.867137 0.173526
vt 0.910013 0.876021
vt 0.867586 0.168515
vt 0.898418 0.994001
vt 0.990954 0.693469
vt 0.689066 0.786324
vt 0.943413 0.528064
vt 0.978009 0.508707
vt 0.611906 0.790109
vt 0.867586 0.179685
vt 0.926944 0.876021
vt 0.981115 0.497126
vt 0.914301 0.880284
vt 0.579984 0.915833
vt 0.880715 0.499311
vt 0.737762 0.987535
vt 0.705053 0.914584
vt 0.808492 0.889282
vt 0.753630 0.499311
vt 0.692588 0.835112
vt 0.815242 0.974568
vt 0.602651 0.838419
vt 0.745540 0.901251
vt 0.909958 0.372425
vt 0.835137 0.470818
vt 0.911013 0.362106
vt 0.902276 0.365354
vt 0.252670 0.916855
vt 0.804267 0.470818
vt 0.692144 0.807618
vt 0.825743 1.000000
vt 0.619634 0.084154
vt 0.472464 0.827141
vt 0.898015 0.682375
vt 0.730198 0.083404
vt 0.625089 0.083901
vt 0.892620 0.680718
vt 0.482599 0.826209
vt 0.244228 0.084498
vt 0.898015 0.672187
vt 0.887987 0.675700
vt 0.736332 0.084404
vt 0.233400 0.083719
vt 0.898274 0.876511
vt 0.878578 0.156273
vt 0.885863 0.997697
vt 0.881139 0.145183
vt 0.881039 0.997871
vt 0.993562 0.612237
vt 0.885253 0.142334
vt 0.894164 0.876678
vt 0.881462 0.159231
vt 0.991128 0.810959
vt 0.878393 0.148137
vt 0.889955 0.997669
vt 0.876993 0.152205
vt 0.902064 0.876021
vt 0.894164 0.997871
vt 0.984714 0.611361
vt 0.892340 0.148137
vt 0.988861 0.611668
vt 0.889346 0.145181
vt 0.922791 0.993756
vt 0.914301 0.997304
vt 0.889670 0.159228
vt 0.980879 0.611660
vt 0.893258 0.152205
vt 0.978009 0.612331
vt 0.926944 0.993952
vt 0.892528 0.156272
vt 0.885600 0.157380
vt 0.995673 0.810809
vt 0.909964 0.997088
s 0
usemtl マテリアル
f 41/91/1 68/160/1 82/184/1
f 76/174/2 110/258/2 109/256/2
f 80/180/3 6/13/3 70/163/3
f 14/33/4 67/158/4 74/171/4
f 38/85/5 5/11/5 18/42/5
f 36/82/6 2/4/6 14/32/6
f 37/84/7 12/28/7 20/46/7
f 34/80/8 16/36/8 35/81/8
f 20/46/9 71/164/9 75/172/9
f 73/170/10 105/245/10 72/166/10
f 4/9/11 104/244/11 107/251/11
f 35/81/5 1/2/5 31/74/5
f 36/83/12 12/29/12 33/77/12
f 71/165/13 14/33/13 74/171/13
f 70/163/14 20/46/14 75/172/14
f 37/84/6 6/13/6 32/76/6
f 34/79/15 18/41/15 11/26/15
f 105/246/16 76/174/16 72/167/16
f 50/115/17 26/61/17 46/105/17
f 44/99/18 29/69/18 24/56/18
f 45/102/19 28/66/19 25/59/19
f 43/98/20 27/64/20 21/49/20
f 47/108/21 26/61/21 27/64/21
f 45/102/22 29/69/22 49/112/22
f 41/92/18 28/66/18 48/110/18
f 42/95/20 30/71/20 50/115/20
f 44/99/23 77/176/23 81/182/23
f 39/87/24 78/178/24 79/179/24
f 2/5/25 79/179/25 67/158/25
f 26/62/26 38/86/26 34/79/26
f 29/70/27 32/76/27 24/57/27
f 28/67/28 33/77/28 25/58/28
f 27/65/29 31/74/29 21/47/29
f 26/63/30 35/81/30 27/65/30
f 29/70/31 33/78/31 37/84/31
f 28/68/27 39/88/27 36/82/27
f 30/73/29 40/89/29 38/85/29
f 77/175/32 32/76/32 80/180/32
f 8/18/33 81/181/33 69/161/33
f 7/14/34 50/116/34 19/43/34
f 4/10/35 48/111/35 15/34/35
f 10/24/36 49/113/36 17/38/36
f 9/21/37 47/109/37 13/30/37
f 13/30/34 43/96/34 3/6/34
f 15/34/38 45/104/38 10/23/38
f 17/39/35 44/101/35 8/17/35
f 19/44/39 46/107/39 9/20/39
f 78/177/40 41/92/40 82/183/40
f 93/216/41 66/157/41 97/226/41
f 53/124/42 96/221/42 84/188/42
f 61/143/43 95/219/43 92/211/43
f 51/118/44 94/217/44 98/227/44
f 63/148/45 93/214/45 94/217/45
f 96/222/46 61/144/46 92/212/46
f 87/198/47 60/141/47 91/207/47
f 85/192/48 59/138/48 90/206/48
f 100/232/49 58/136/49 89/203/49
f 83/187/50 108/253/50 103/242/50
f 57/134/51 87/198/51 88/200/51
f 59/138/52 100/233/52 86/194/52
f 58/136/53 98/227/53 89/203/53
f 64/150/54 85/192/54 95/219/54
f 91/209/55 112/263/55 113/265/55
f 66/156/56 83/185/56 97/224/56
f 78/177/57 66/157/57 62/146/57
f 69/161/58 65/153/58 53/123/58
f 77/175/59 64/151/59 61/142/59
f 51/119/60 79/179/60 63/149/60
f 63/149/61 78/178/61 62/145/61
f 65/154/62 77/176/62 61/144/62
f 72/168/63 60/141/63 56/132/63
f 70/163/64 59/139/64 54/127/64
f 55/128/65 101/236/65 102/240/65
f 68/159/66 108/253/66 52/120/66
f 57/134/63 72/168/63 56/132/63
f 75/172/67 101/235/67 99/230/67
f 58/137/68 67/158/68 51/119/68
f 80/180/69 54/127/69 64/151/69
f 76/174/70 112/263/70 60/140/70
f 82/184/71 52/122/71 66/155/71
f 43/97/1 83/186/1 3/7/1
f 111/262/72 84/189/72 7/15/72
f 95/220/3 5/12/3 40/90/3
f 16/37/73 98/227/73 1/1/73
f 90/205/74 11/26/74 18/41/74
f 106/249/75 9/22/75 13/31/75
f 83/187/76 106/249/76 13/31/76
f 11/27/77 89/204/77 16/36/77
f 85/192/73 18/42/73 5/11/73
f 9/22/78 111/262/78 19/45/78
f 42/95/23 92/212/23 23/54/23
f 31/75/24 93/215/24 21/48/24
f 1/3/25 94/218/25 31/75/25
f 92/213/32 40/90/32 23/53/32
f 7/16/33 96/223/33 42/93/33
f 93/216/40 43/98/40 21/49/40
f 99/230/79 101/235/79 55/129/79
f 100/233/80 99/229/80 55/130/80
f 101/236/81 74/171/81 58/137/81
f 102/239/82 100/232/82 55/131/82
f 101/237/83 100/234/83 102/238/83
f 105/247/84 15/35/84 10/25/84
f 108/254/85 88/201/85 103/241/85
f 107/252/86 104/243/86 73/170/86
f 106/248/87 103/241/87 88/201/87
f 108/255/88 73/170/88 57/133/88
f 113/266/89 111/260/89 91/208/89
f 112/264/90 69/162/90 53/125/90
f 105/247/91 17/40/91 110/259/91
f 113/267/92 53/125/92 84/189/92
f 110/259/93 8/19/93 69/162/93
f 114/269/94 88/202/94 87/197/94
f 114/270/95 91/210/95 111/261/95
f 41/91/1 4/10/1 68/160/1
f 80/180/3 32/76/3 6/13/3
f 14/33/73 2/5/73 67/158/73
f 38/85/5 40/89/5 5/11/5
f 36/82/6 39/88/6 2/4/6
f 37/84/7 33/78/7 12/28/7
f 34/80/8 11/27/8 16/36/8
f 20/46/9 12/28/9 71/164/9
f 73/170/96 104/243/96 105/245/96
f 107/251/97 68/159/97 4/9/97
f 4/9/98 15/35/98 104/244/98
f 35/81/5 16/36/5 1/2/5
f 36/83/12 14/33/12 12/29/12
f 71/165/13 12/29/13 14/33/13
f 70/163/73 6/13/73 20/46/73
f 37/84/6 20/46/6 6/13/6
f 34/79/15 38/86/15 18/41/15
f 105/246/99 110/258/99 76/174/99
f 50/115/17 30/71/17 26/61/17
f 44/99/18 49/112/18 29/69/18
f 45/102/19 48/110/19 28/66/19
f 43/98/20 47/108/20 27/64/20
f 47/108/21 46/105/21 26/61/21
f 45/102/22 25/59/22 29/69/22
f 41/92/18 22/52/18 28/66/18
f 42/95/20 23/54/20 30/71/20
f 44/99/23 24/56/23 77/176/23
f 39/87/24 22/50/24 78/178/24
f 2/5/25 39/87/25 79/179/25
f 26/62/26 30/72/26 38/86/26
f 29/70/27 37/84/27 32/76/27
f 28/67/28 36/83/28 33/77/28
f 27/65/29 35/81/29 31/74/29
f 26/63/30 34/80/30 35/81/30
f 29/70/31 25/60/31 33/78/31
f 28/68/27 22/51/27 39/88/27
f 30/73/29 23/55/29 40/89/29
f 77/175/32 24/57/32 32/76/32
f 8/18/33 44/100/33 81/181/33
f 7/14/34 42/94/34 50/116/34
f 4/10/35 41/91/35 48/111/35
f 10/24/36 45/103/36 49/113/36
f 9/21/37 46/106/37 47/109/37
f 13/30/34 47/109/34 43/96/34
f 15/34/38 48/111/38 45/104/38
f 17/39/35 49/114/35 44/101/35
f 19/44/39 50/117/39 46/107/39
f 78/177/40 22/52/40 41/92/40
f 93/216/41 62/146/41 66/157/41
f 53/124/42 65/152/42 96/221/42
f 61/143/43 64/150/43 95/219/43
f 51/118/44 63/148/44 94/217/44
f 63/148/45 62/147/45 93/214/45
f 96/222/46 65/154/46 61/144/46
f 87/198/63 56/132/63 60/141/63
f 85/192/48 54/126/48 59/138/48
f 89/203/100 86/193/100 100/232/100
f 100/232/101 102/239/101 58/136/101
f 83/187/102 52/120/102 108/253/102
f 57/134/63 56/132/63 87/198/63
f 86/194/73 90/206/73 59/138/73
f 59/138/103 99/229/103 100/233/103
f 58/136/53 51/118/53 98/227/53
f 64/150/54 54/126/54 85/192/54
f 91/209/104 60/140/104 112/263/104
f 66/156/56 52/121/56 83/185/56
f 78/177/57 82/183/57 66/157/57
f 69/161/58 81/181/58 65/153/58
f 77/175/59 80/180/59 64/151/59
f 51/119/60 67/158/60 79/179/60
f 63/149/61 79/179/61 78/178/61
f 65/154/62 81/182/62 77/176/62
f 72/168/105 76/173/105 60/141/105
f 70/163/64 75/172/64 59/139/64
f 68/159/106 107/251/106 108/253/106
f 57/134/107 73/169/107 72/168/107
f 99/230/108 59/139/108 75/172/108
f 75/172/109 71/164/109 101/235/109
f 58/137/68 74/171/68 67/158/68
f 80/180/69 70/163/69 54/127/69
f 76/174/110 109/256/110 112/263/110
f 82/184/71 68/160/71 52/122/71
f 43/97/1 97/225/1 83/186/1
f 7/15/111 19/45/111 111/262/111
f 111/262/112 113/267/112 84/189/112
f 95/220/3 85/191/3 5/12/3
f 16/37/113 89/203/113 98/227/113
f 90/205/74 86/195/74 11/26/74
f 106/249/114 114/268/114 9/22/114
f 13/31/63 3/8/63 83/187/63
f 83/187/115 103/242/115 106/249/115
f 11/27/77 86/196/77 89/204/77
f 85/192/116 90/206/116 18/42/116
f 9/22/117 114/268/117 111/262/117
f 42/95/23 96/222/23 92/212/23
f 31/75/24 94/218/24 93/215/24
f 1/3/25 98/228/25 94/218/25
f 92/213/32 95/220/32 40/90/32
f 7/16/33 84/190/33 96/223/33
f 93/216/40 97/226/40 43/98/40
f 58/137/118 102/240/118 101/236/118
f 101/236/119 71/165/119 74/171/119
f 101/237/63 99/231/63 100/234/63
f 105/247/120 104/244/120 15/35/120
f 108/254/121 57/135/121 88/201/121
f 108/255/122 107/252/122 73/170/122
f 112/264/123 109/257/123 69/162/123
f 105/247/124 10/25/124 17/40/124
f 113/267/125 112/264/125 53/125/125
f 69/162/126 109/257/126 110/259/126
f 110/259/127 17/40/127 8/19/127
f 114/269/128 106/250/128 88/202/128
f 114/270/129 87/199/129 91/210/129
