# Blender 3.5.0
# www.blender.org
mtllib TestPlayerver_body.mtl
o C_Body
v 0.239145 0.920317 -0.068663
v 1.000000 4.369352 -0.287120
v 0.239145 0.920317 0.068663
v 1.000000 4.369352 0.287120
v 0.816543 2.644835 -0.234445
v 0.816543 2.644835 0.234445
v 0.239145 0.920317 0.000000
v 1.000000 4.369352 0.000000
v 0.816543 2.644835 0.000000
v 0.000000 0.920317 -0.111025
v 0.000000 4.369352 -0.464256
v 0.000000 0.920317 0.260661
v 0.000000 4.369352 0.613892
v 0.000000 2.644835 0.528721
v 0.000000 2.644835 -0.379085
v 0.000000 4.369352 0.000000
v 0.000000 0.920317 0.000000
v 0.500000 4.369352 -0.464256
v 0.119573 0.920317 0.111025
v 0.408271 2.644835 -0.379085
v 0.119573 0.920317 -0.111025
v 0.500000 4.369352 0.464256
v 0.408271 2.644835 0.379085
v 0.500000 4.369352 0.000000
v 0.119573 0.920317 0.000000
v 0.841243 3.507094 -0.241537
v 0.841243 3.507094 0.241537
v 0.841243 3.507094 0.000000
v 0.000000 3.507094 0.540188
v 0.000000 3.507094 -0.390552
v 0.420622 3.507094 0.390552
v 0.420622 3.507094 -0.390552
v 0.523730 1.782576 -0.150373
v 0.523730 1.782576 0.150373
v 0.523730 1.782576 0.000000
v 0.000000 1.782576 -0.243145
v 0.000000 1.782576 0.392781
v 0.261865 1.782576 0.243145
v 0.261865 1.782576 -0.243145
v -0.239145 0.920317 -0.068663
v -1.000000 4.369352 -0.287120
v -0.239145 0.920317 0.068663
v -1.000000 4.369352 0.287120
v -0.816543 2.644835 -0.234445
v -0.816543 2.644835 0.234445
v -0.239145 0.920317 0.000000
v -1.000000 4.369352 0.000000
v -0.816543 2.644835 0.000000
v -0.500000 4.369352 -0.464256
v -0.119573 0.920317 0.111025
v -0.408271 2.644835 -0.379085
v -0.119573 0.920317 -0.111025
v -0.500000 4.369352 0.464256
v -0.408271 2.644835 0.379085
v -0.500000 4.369352 0.000000
v -0.119573 0.920317 0.000000
v -0.841243 3.507094 -0.241537
v -0.841243 3.507094 0.241537
v -0.841243 3.507094 0.000000
v -0.420622 3.507094 0.390552
v -0.420622 3.507094 -0.390552
v -0.523730 1.782576 -0.150373
v -0.523730 1.782576 0.150373
v -0.523730 1.782576 0.000000
v -0.261865 1.782576 0.243145
v -0.261865 1.782576 -0.243145
vn 0.3319 -0.1106 -0.9368
vn 0.9835 -0.1811 -0.0000
vn 0.9469 -0.3216 -0.0000
vn 0.3271 -0.2011 -0.9233
vn -0.0000 -1.0000 -0.0000
vn -0.0000 1.0000 -0.0000
vn 0.4916 -0.1356 0.8602
vn 0.3341 -0.0803 0.9391
vn 0.3319 -0.1106 0.9368
vn 0.3271 -0.2011 0.9233
vn -0.0000 -0.1557 -0.9878
vn -0.0000 -0.0852 -0.9964
vn -0.0000 -0.0133 -0.9999
vn 0.3339 -0.0173 0.9425
vn 0.3441 -0.0125 0.9389
vn 0.9996 -0.0286 -0.0000
vn 0.3339 -0.0173 -0.9425
vn -0.0000 -0.1515 -0.9885
vn 0.3275 -0.1957 0.9244
vn 0.7622 -0.2191 0.6091
vn 0.9496 -0.3134 -0.0000
vn 0.3275 -0.1957 -0.9244
vn -0.3319 -0.1106 -0.9368
vn -0.9835 -0.1811 -0.0000
vn -0.9469 -0.3216 -0.0000
vn -0.3271 -0.2011 -0.9233
vn -0.3370 -0.2022 0.9195
vn -0.2850 -0.1077 0.9525
vn -0.3319 -0.1106 0.9368
vn -0.3271 -0.2011 0.9233
vn -0.3339 -0.0173 0.9425
vn -0.3351 -0.0173 0.9420
vn -0.9996 -0.0286 -0.0000
vn -0.3339 -0.0173 -0.9425
vn -0.3275 -0.1957 0.9244
vn -0.7622 -0.2191 0.6091
vn -0.9496 -0.3134 -0.0000
vn -0.3275 -0.1957 -0.9244
vn 0.3370 -0.2022 0.9195
vn 0.2850 -0.1077 0.9525
vn 0.3351 -0.0173 0.9420
vn 0.4918 -0.1319 0.8607
vn -0.4916 -0.1356 0.8602
vn -0.3341 -0.0803 0.9391
vn -0.3441 -0.0125 0.9389
vn -0.4918 -0.1319 0.8607
vt 0.146100 0.678098
vt 0.197583 0.672493
vt 0.871752 0.972937
vt 0.981095 0.683870
vt 0.228896 0.968315
vt 0.374850 0.685828
vt 0.126365 0.678098
vt 0.515593 0.974383
vt 0.177847 0.672493
vt 0.146372 0.968315
vt 0.406250 0.685374
vt 0.292328 0.685828
vt 0.221340 0.822859
vt 0.954730 0.827692
vt 0.432615 0.829232
vt 0.153955 0.822859
vt 0.187715 0.672493
vt 0.136233 0.678098
vt 0.187634 0.968315
vt 0.333589 0.685828
vt 0.187647 0.822859
vt 0.837384 0.972404
vt 0.152188 0.643730
vt 0.400306 0.829539
vt 0.837384 0.681641
vt 0.098774 0.643730
vt 0.549961 0.972189
vt 0.245368 0.829539
vt 0.549961 0.681641
vt 0.549961 0.825870
vt 0.837384 0.825872
vt 0.333589 0.829539
vt 0.136233 0.643730
vt 0.400306 0.757684
vt 0.909239 0.681641
vt 0.532777 0.973899
vt 0.120278 0.660914
vt 0.896057 0.825872
vt 0.152188 0.660914
vt 0.854568 0.972404
vt 0.266872 0.757684
vt 0.478106 0.683350
vt 0.491288 0.827580
vt 0.333589 0.757684
vt 0.136233 0.660914
vt 0.222361 0.894752
vt 0.958280 0.756023
vt 0.429065 0.757523
vt 0.152938 0.894752
vt 0.187650 0.894752
vt 0.549961 0.754111
vt 0.837384 0.754148
vt 0.489513 0.755820
vt 0.897832 0.754148
vt 0.209292 0.747624
vt 0.912650 0.900329
vt 0.474695 0.901821
vt 0.166071 0.747624
vt 0.187682 0.747624
vt 0.837384 0.899162
vt 0.549961 0.899051
vt 0.512328 0.900761
vt 0.875017 0.899162
vt 0.146100 0.609362
vt 0.061463 0.677847
vt 0.803016 0.972937
vt 0.030150 0.973670
vt 0.693672 0.683870
vt 0.374850 0.973250
vt 0.126365 0.609362
vt 0.584329 0.974383
vt 0.081199 0.677847
vt 0.693672 0.685374
vt 0.112674 0.973670
vt 0.292328 0.973250
vt 0.037706 0.828213
vt 0.720037 0.827692
vt 0.667307 0.829232
vt 0.105091 0.828213
vt 0.136233 0.609362
vt 0.071331 0.677847
vt 0.333589 0.973250
vt 0.071412 0.973670
vt 0.071399 0.828213
vt 0.400306 0.901395
vt 0.765528 0.681641
vt 0.120278 0.626546
vt 0.567145 0.973899
vt 0.778710 0.825872
vt 0.152188 0.626546
vt 0.820200 0.972404
vt 0.621817 0.683350
vt 0.266872 0.901395
vt 0.608634 0.827580
vt 0.333589 0.901395
vt 0.136233 0.626546
vt 0.036685 0.900106
vt 0.716488 0.756023
vt 0.670857 0.757523
vt 0.106108 0.900106
vt 0.071396 0.900106
vt 0.610409 0.755820
vt 0.776936 0.754148
vt 0.049754 0.752979
vt 0.762118 0.900329
vt 0.625227 0.901821
vt 0.092975 0.752979
vt 0.071364 0.752979
vt 0.587594 0.900761
vt 0.799751 0.899162
s 0
usemtl マテリアル
f 18/35/1 26/47/1 32/54/1
f 8/19/2 27/49/2 28/50/2
f 9/21/3 34/58/3 35/59/3
f 20/38/4 33/56/4 39/63/4
f 33/55/3 9/21/3 35/59/3
f 26/46/2 8/19/2 28/50/2
f 25/45/5 10/23/5 21/39/5
f 22/41/6 16/32/6 13/28/6
f 38/62/7 14/30/7 37/61/7
f 18/34/6 16/32/6 24/44/6
f 19/37/5 17/33/5 25/45/5
f 31/53/8 13/29/8 29/51/8
f 27/48/9 22/42/9 31/53/9
f 3/7/5 25/45/5 7/18/5
f 2/6/6 24/44/6 8/20/6
f 34/57/10 23/43/10 38/62/10
f 4/12/6 24/44/6 22/41/6
f 1/1/5 25/45/5 21/39/5
f 15/31/11 39/63/11 36/60/11
f 11/25/12 32/54/12 30/52/12
f 30/52/13 20/38/13 15/31/13
f 6/15/14 31/53/14 23/43/14
f 23/43/15 29/51/15 14/30/15
f 5/13/16 28/50/16 9/21/16
f 28/50/16 6/16/16 9/21/16
f 32/54/17 5/14/17 20/38/17
f 36/60/18 21/40/18 10/22/18
f 3/8/19 38/62/19 19/36/19
f 38/62/20 12/27/20 19/36/20
f 1/2/21 35/59/21 7/17/21
f 39/63/22 1/3/22 21/40/22
f 35/59/21 3/9/21 7/17/21
f 57/98/23 49/86/23 61/103/23
f 58/100/24 47/83/24 59/101/24
f 63/107/25 48/84/25 64/108/25
f 62/105/26 51/89/26 66/110/26
f 62/104/25 48/84/25 44/76/25
f 57/97/24 47/83/24 41/67/24
f 10/23/5 56/96/5 52/90/5
f 53/93/6 16/32/6 55/95/6
f 65/109/27 14/30/27 54/94/27
f 16/32/6 49/85/6 55/95/6
f 17/33/5 50/87/5 56/96/5
f 60/102/28 13/29/28 53/92/28
f 58/99/29 53/92/29 43/73/29
f 56/96/5 42/70/5 46/80/5
f 55/95/6 41/69/6 47/82/6
f 63/106/30 54/94/30 45/78/30
f 43/75/6 55/95/6 47/82/6
f 40/64/5 56/96/5 46/80/5
f 66/110/11 15/31/11 36/60/11
f 61/103/12 11/25/12 30/52/12
f 51/89/13 30/52/13 15/31/13
f 45/78/31 60/102/31 58/99/31
f 54/94/32 29/51/32 60/102/32
f 44/76/33 59/101/33 57/97/33
f 45/79/33 59/101/33 48/84/33
f 44/77/34 61/103/34 51/89/34
f 52/91/18 36/60/18 10/22/18
f 42/71/35 65/109/35 63/106/35
f 12/27/36 65/109/36 50/88/36
f 40/65/37 64/108/37 62/104/37
f 40/66/38 66/110/38 52/91/38
f 42/72/37 64/108/37 46/81/37
f 18/35/1 2/4/1 26/47/1
f 8/19/2 4/10/2 27/49/2
f 9/21/3 6/16/3 34/58/3
f 20/38/4 5/14/4 33/56/4
f 33/55/3 5/13/3 9/21/3
f 26/46/2 2/5/2 8/19/2
f 25/45/5 17/33/5 10/23/5
f 22/41/6 24/44/6 16/32/6
f 38/62/39 23/43/39 14/30/39
f 18/34/6 11/24/6 16/32/6
f 19/37/5 12/26/5 17/33/5
f 31/53/40 22/42/40 13/29/40
f 27/48/9 4/11/9 22/42/9
f 3/7/5 19/37/5 25/45/5
f 2/6/6 18/34/6 24/44/6
f 34/57/10 6/15/10 23/43/10
f 4/12/6 8/20/6 24/44/6
f 1/1/5 7/18/5 25/45/5
f 15/31/11 20/38/11 39/63/11
f 11/25/12 18/35/12 32/54/12
f 30/52/13 32/54/13 20/38/13
f 6/15/14 27/48/14 31/53/14
f 23/43/41 31/53/41 29/51/41
f 5/13/16 26/46/16 28/50/16
f 28/50/16 27/49/16 6/16/16
f 32/54/17 26/47/17 5/14/17
f 36/60/18 39/63/18 21/40/18
f 3/8/19 34/57/19 38/62/19
f 38/62/42 37/61/42 12/27/42
f 1/2/21 33/55/21 35/59/21
f 39/63/22 33/56/22 1/3/22
f 35/59/21 34/58/21 3/9/21
f 57/98/23 41/68/23 49/86/23
f 58/100/24 43/74/24 47/83/24
f 63/107/25 45/79/25 48/84/25
f 62/105/26 44/77/26 51/89/26
f 62/104/25 64/108/25 48/84/25
f 57/97/24 59/101/24 47/83/24
f 10/23/5 17/33/5 56/96/5
f 53/93/6 13/28/6 16/32/6
f 65/109/43 37/61/43 14/30/43
f 16/32/6 11/24/6 49/85/6
f 17/33/5 12/26/5 50/87/5
f 60/102/44 29/51/44 13/29/44
f 58/99/29 60/102/29 53/92/29
f 56/96/5 50/87/5 42/70/5
f 55/95/6 49/85/6 41/69/6
f 63/106/30 65/109/30 54/94/30
f 43/75/6 53/93/6 55/95/6
f 40/64/5 52/90/5 56/96/5
f 66/110/11 51/89/11 15/31/11
f 61/103/12 49/86/12 11/25/12
f 51/89/13 61/103/13 30/52/13
f 45/78/31 54/94/31 60/102/31
f 54/94/45 14/30/45 29/51/45
f 44/76/33 48/84/33 59/101/33
f 45/79/33 58/100/33 59/101/33
f 44/77/34 57/98/34 61/103/34
f 52/91/18 66/110/18 36/60/18
f 42/71/35 50/88/35 65/109/35
f 12/27/46 37/61/46 65/109/46
f 40/65/37 46/81/37 64/108/37
f 40/66/38 62/105/38 66/110/38
f 42/72/37 63/107/37 64/108/37
